<?xml version="1.0" encoding="utf-8"?>
<svg viewBox="160.575 170.748 47.909 47.909" xmlns="http://www.w3.org/2000/svg" xmlns:xlink="http://www.w3.org/1999/xlink">
  <defs>
    <radialGradient id="radialGradient21328" cx="30.070396" cy="41.590385" r="19.84375" gradientUnits="userSpaceOnUse" gradientTransform="matrix(2.1644523,-1.2251591,1.0987873,1.9411957,-57.392004,62.950006)" xlink:href="#linearGradient21326"/>
    <linearGradient id="linearGradient21326">
      <stop style="stop-color:#1e1af5;stop-opacity:1;" offset="0" id="stop21322"/>
      <stop style="stop-color:#771af5;stop-opacity:1;" offset="1" id="stop21324"/>
    </linearGradient>
  </defs>
  <rect style="fill:url(#radialGradient21328);fill-opacity:1;stroke:none;stroke-width:0.178243" id="rect17859-5" width="47.908768" height="47.908768" x="41.610775" y="63.187599" ry="8.3135586" transform="matrix(1, 0, 0, 1, 118.964691, 107.560043)"/>
  <path id="path17861-9" style="fill:#ffffff;fill-opacity:1;stroke-width:0.137451" d="m 55.461025,72.318314 c -0.285968,0.0091 -0.571999,0.08469 -0.836595,0.228945 -0.591044,0.329881 -0.96192,0.948684 -0.96192,1.622195 v 26.898996 c 0,0.67351 0.370876,1.30552 0.96192,1.62164 0.274903,0.15122 0.591161,0.23382 0.893564,0.23382 0.343619,0 0.701296,-0.0962 1.003687,-0.28863 L 80.678707,89.178731 c 0.53604,-0.343604 0.852324,-0.934572 0.852324,-1.566843 0,-0.632271 -0.330022,-1.195543 -0.852324,-1.539174 l -5.903888,-3.225381 c -0.47835,1.128485 -1.243582,2.115015 -2.221142,2.863513 l 3.685445,1.928711 -18.865657,10.061356 V 77.57821 l 5.897924,3.663751 c 0.100495,-1.308339 0.565779,-2.563359 1.343873,-3.625235 L 56.521681,72.616168 C 56.196954,72.407412 55.8287,72.307172 55.461025,72.318314 Z" transform="matrix(1, 0, 0, 1, 118.964691, 107.560043)"/>
  <text style="font-style: normal; font-variant: normal; font-weight: bold; font-stretch: normal; font-size: 6.56455px; font-family: &quot;Weather Icons&quot;; fill: rgb(255, 255, 255); stroke-width: 0.547045; white-space: pre;" x="66.084595" y="81.513359" id="text17865-4" transform="matrix(1, 0, 0, 1, 118.964691, 107.560043)"><tspan id="tspan17863-9" style="font-style:normal;font-variant:normal;font-weight:bold;font-stretch:normal;font-family:'Weather Icons';-inkscape-font-specification:'Weather Icons Bold';fill:#ffffff;stroke-width:0.547045" x="66.084595" y="81.513359">{ }</tspan></text>
  <rect style="fill:none;fill-opacity:1;stroke:#ffffff;stroke-width:1.87842;stroke-dasharray:none;stroke-opacity:1" id="rect17867-0" width="11.615613" height="11.246332" x="63.703857" y="73.983307" ry="2.7310944" transform="matrix(1, 0, 0, 1, 118.964691, 107.560043)"/>
</svg>